<?xml version="1.0" encoding="UTF-8" standalone="no"?>
<!-- Created with Inkscape (http://www.inkscape.org/) -->

<svg
   width="3.5256968in"
   height="0.7557382in"
   viewBox="0 0 89.552698 19.19575"
   version="1.1"
   id="svg1"
   xmlns="http://www.w3.org/2000/svg"
   xmlns:svg="http://www.w3.org/2000/svg">
  <defs
     id="defs1" />
  <g
     id="layer1"
     transform="translate(110.87206,53.395499)">
    <g
       id="g16"
       transform="matrix(0.38000643,0,0,0.38000643,-121.96483,-59.812365)">
      <g
         id="g1">
        <rect
           style="fill:#f5f5f5;fill-opacity:1;stroke:none;stroke-width:0.264583"
           id="rect15"
           width="2.020571"
           height="50.514278"
           x="50.633846"
           y="16.886202" />
        <path
           id="path15"
           style="font-weight:800;font-size:57.5301px;font-family:'Open Sauce Two';-inkscape-font-specification:'Open Sauce Two, Ultra-Bold';text-align:center;letter-spacing:-0.647214px;text-anchor:middle;fill:#fbde59;fill-opacity:1;stroke:none;stroke-width:1.16363"
           d="m 55.106611,21.112697 v 8.098644 h 4.102002 c 1.899051,0 3.332537,0.428452 4.300681,1.284887 1.005379,0.819198 1.508148,2.029231 1.508148,3.630391 0,1.638397 -0.502769,2.885841 -1.508148,3.742276 -0.968144,0.856434 -2.40163,1.284885 -4.300681,1.284885 h -4.102002 v 7.819191 h 3.096571 c 0.558543,0 0.931131,0.279317 1.117314,0.83786 l 5.864518,15.13667 c 0.223417,0.521307 0.614459,0.78217 1.173004,0.78217 h 7.484549 c 0.595781,0 0.89355,-0.242409 0.89355,-0.72648 l -0.11138,-0.446524 -6.702881,-16.365364 c -0.07448,-0.223417 -0.11138,-0.391008 -0.11138,-0.502716 0,-0.335126 0.186043,-0.614442 0.558406,-0.83786 1.750106,-1.079853 3.109275,-2.550748 4.077419,-4.412562 1.00538,-1.899051 1.508147,-4.096167 1.508147,-6.590999 0,-4.356645 -1.210535,-7.558797 -3.630894,-9.606792 -2.383122,-2.085232 -5.659591,-3.127677 -9.830054,-3.127677 z" />
        <path
           id="path16"
           style="font-weight:800;font-size:55.2004px;font-family:'Open Sauce Two';-inkscape-font-specification:'Open Sauce Two, Ultra-Bold';text-align:center;letter-spacing:-0.621005px;text-anchor:middle;fill:#f5f5f5;fill-opacity:1;stroke-width:1.11958"
           d="m 45.151791,21.112697 c -2.830299,0 -6.74162,0.187565 -8.998695,1.119056 -2.257074,0.931492 -4.201646,2.734959 -5.068191,4.14908 -1.289758,1.827155 -1.793766,4.528134 -1.793766,7.179302 0,3.235804 0.429478,5.403142 1.711293,7.348777 0.598424,0.948251 1.113366,1.69737 1.852896,2.457002 0.826934,0.849412 1.934622,1.556356 2.974825,1.953524 3.978613,1.358025 6.286292,1.488336 7.295636,1.567822 1.270289,0.10543 3.996731,0.156477 5.037306,0.121525 0,0 -0.08305,-7.889156 -0.08233,-7.814368 -1.379474,-0.0022 -2.437666,0.01448 -3.489317,-0.01333 -2.056548,-0.0544 -6.512397,-0.06493 -6.396267,-5.20371 0.0963,-4.261165 3.811764,-4.662366 6.356842,-4.710488 1.177643,-0.02392 2.270126,-0.0034 3.629632,0.01125 l -0.01121,-8.119933 c -1.026359,-0.02178 -1.985692,-0.04551 -3.018645,-0.04551 z M 30.104612,49.326281 c -0.609051,0 -0.913602,0.268574 -0.913602,0.805972 v 0.21476 c 0.429919,3.188566 1.59441,5.786125 3.493219,7.792415 1.89881,2.006287 4.137603,3.457093 6.717116,4.352756 2.61534,0.859839 5.32033,1.290059 8.114802,1.290059 0.222027,0 0.436585,-0.0088 0.65429,-0.01351 v -7.366902 c -0.214129,0.01062 -0.43131,0.01802 -0.65429,0.01802 -4.836589,0 -7.917583,-2.095886 -9.243165,-6.287597 -0.143308,-0.537398 -0.501574,-0.805972 -1.0748,-0.805972 z" />
      </g>
    </g>
    <g
       id="text9"
       style="font-weight:800;font-size:9.84347px;font-family:'Open Sauce Two';-inkscape-font-specification:'Open Sauce Two, Ultra-Bold';text-align:center;letter-spacing:-0.110739px;text-anchor:middle;stroke-width:0.205071"
       aria-label="Sunday Ready"
       transform="translate(-63.597547,-177.90986)">
      <path
         style="fill:#f5f5f5;fill-opacity:1"
         d="m -23.018784,134.62629 q -0.76779,0 -1.486364,-0.23624 -0.708729,-0.24609 -1.230433,-0.79732 -0.521704,-0.55124 -0.639826,-1.42731 v -0.0394 q 0,-0.14765 0.167339,-0.14765 h 1.299338 q 0.157496,0 0.196869,0.14765 0.364209,1.15169 1.693077,1.15169 0.551235,0 0.905599,-0.23625 0.364209,-0.23624 0.364209,-0.69888 0,-0.32484 -0.2264,-0.52171 -0.2264,-0.19687 -0.570921,-0.30515 -0.334678,-0.10827 -0.93513,-0.23624 -0.846538,-0.18702 -1.387929,-0.38389 -0.541391,-0.20672 -0.925286,-0.63983 -0.383895,-0.44296 -0.383895,-1.19106 0,-0.72842 0.354364,-1.23043 0.354365,-0.51186 0.974504,-0.76779 0.620139,-0.25593 1.397773,-0.25593 0.73826,0 1.378085,0.25593 0.649669,0.24608 1.092625,0.75794 0.4528,0.50202 0.600452,1.23044 l 0.0098,0.0492 q 0,0.0689 -0.04922,0.10828 -0.03937,0.0295 -0.118121,0.0295 h -1.279651 q -0.157496,0 -0.19687,-0.13781 -0.167339,-0.46264 -0.561078,-0.69888 -0.383895,-0.24609 -0.915442,-0.24609 -0.48233,0 -0.797321,0.19687 -0.305148,0.19687 -0.305148,0.57092 0,0.29531 0.206713,0.47249 0.216556,0.17718 0.531547,0.28546 0.324835,0.0984 0.915443,0.23624 0.866225,0.18703 1.427303,0.40359 0.561078,0.20671 0.96466,0.67919 0.403582,0.46265 0.403582,1.25997 0,0.71857 -0.344521,1.25012 -0.344521,0.53155 -0.99419,0.82685 -0.639826,0.28546 -1.535582,0.28546 z m 5.637852,-0.0394 q -1.309182,0 -1.761981,-0.94498 -0.127965,-0.27561 -0.177183,-0.60045 -0.03937,-0.32483 -0.03937,-0.9745 v -2.97273 q 0,-0.17718 0.177183,-0.17718 h 1.131999 q 0.177182,0 0.177182,0.17718 v 2.99242 q 0,0.41342 0.05906,0.66935 0.05906,0.24609 0.19687,0.39374 0.206712,0.2264 0.649669,0.2264 0.531547,0 0.787477,-0.31499 0.147652,-0.16734 0.206713,-0.44296 0.05906,-0.27561 0.05906,-0.72841 v -2.79555 q 0,-0.17718 0.177182,-0.17718 h 1.141843 q 0.177182,0 0.177182,0.17718 v 5.19735 q 0,0.17719 -0.177182,0.17719 h -1.141843 q -0.177182,0 -0.177182,-0.17719 v -0.14765 q 0,-0.15749 -0.07875,-0.15749 -0.04922,0 -0.108278,0.0787 -0.25593,0.26578 -0.561078,0.39374 -0.305147,0.12797 -0.718573,0.12797 z m 4.171168,-0.11812 q -0.177183,0 -0.177183,-0.17719 v -5.19735 q 0,-0.17718 0.177183,-0.17718 h 1.141842 q 0.177182,0 0.177182,0.17718 v 0.1575 q 0,0.13781 0.07875,0.13781 0.03937,0 0.118122,-0.0787 0.265774,-0.27562 0.570921,-0.39374 0.305148,-0.11812 0.689043,-0.11812 1.3485553,0 1.761981,0.94497 0.1574956,0.32483 0.187026,0.65951 0.039374,0.33468 0.039374,0.91545 v 2.97272 q 0,0.17719 -0.1771824,0.17719 h -1.131999 q -0.1771825,0 -0.1771825,-0.17719 v -2.99241 q 0,-0.41343 -0.059061,-0.65951 -0.059061,-0.25593 -0.1968691,-0.40359 -0.216557,-0.2264 -0.649669,-0.2264 -0.551235,0 -0.797321,0.315 -0.137809,0.16733 -0.19687,0.44295 -0.05906,0.27562 -0.05906,0.72842 v 2.79554 q 0,0.17719 -0.177182,0.17719 z m 7.9805963,0.11812 q -0.7087298,0 -1.2599641,-0.36421 -0.5512343,-0.37405 -0.8662253,-1.02372 -0.3051476,-0.65951 -0.3051476,-1.50605 0,-0.84654 0.3051476,-1.49621 0.314991,-0.65951 0.8662253,-1.02372 0.5512343,-0.37405 1.2599641,-0.37405 0.4134257,0 0.7185733,0.11812 0.314991,0.11812 0.5807647,0.39374 0.078748,0.0787 0.1181216,0.0787 0.078748,0 0.078748,-0.13781 v -2.11635 q 0,-0.17718 0.1771824,-0.17718 h 1.1418425 q 0.1771825,0 0.1771825,0.17718 v 7.1562 q 0,0.17719 -0.1771825,0.17719 h -1.1418425 q -0.1771824,0 -0.1771824,-0.17719 v -0.19687 q 0,-0.10827 -0.068904,-0.10827 -0.049217,0 -0.1279651,0.0787 -0.2657737,0.28546 -0.5807647,0.40359 -0.3051476,0.11812 -0.7185733,0.11812 z m 0.3838953,-1.27965 q 0.5906082,0 0.9548166,-0.44296 0.3740518,-0.4528 0.3740518,-1.17137 0,-0.71858 -0.3740518,-1.16153 -0.3642084,-0.4528 -0.9548166,-0.4528 -0.5906082,0 -0.9548165,0.4528 -0.354365,0.44295 -0.354365,1.16153 0,0.71857 0.354365,1.17137 0.3642083,0.44296 0.9548165,0.44296 z m 5.24410644,1.27965 q -0.79732104,0 -1.30918146,-0.43312 -0.51186038,-0.44295 -0.51186038,-1.23043 0,-0.84654 0.6693559,-1.29934 0.43311266,-0.2953 1.29933799,-0.4528 l 1.37808571,-0.2559 q 0.167339,-0.0295 0.1574955,-0.20671 -0.059061,-0.33468 -0.2362432,-0.53155 -0.2165564,-0.23624 -0.649669,-0.23624 -0.29530411,0 -0.54139085,0.17718 -0.24608674,0.16734 -0.3543649,0.46265 -0.0393739,0.14765 -0.1968694,0.14765 H -1.0186256 q -0.2067128,0 -0.1574955,-0.19687 0.18702593,-0.85638 0.85638186,-1.2895 0.66935593,-0.44295 1.52573784,-0.44295 0.5020169,0 0.944973,0.13781 0.4429562,0.1378 0.7579472,0.41342 0.314991,0.27562 0.4527996,0.63983 0.147652,0.36421 0.1771825,0.7481 0.039374,0.37405 0.039374,0.9745 v 2.57899 q 0,0.17719 -0.1771824,0.17719 H 2.2592498 q -0.1771825,0 -0.1771825,-0.17719 v -0.18702 q 0,-0.1575 -0.059061,-0.1575 -0.02953,0 -0.088591,0.0689 -0.167339,0.18702 -0.2953041,0.26577 -0.4527996,0.30515 -1.24027716,0.30515 z M 0.8024163,133.4352 q 0.3445214,0 0.649669,-0.14765 0.334678,-0.1575 0.48233,-0.42327 0.147652,-0.26577 0.1771825,-0.69889 v -0.0197 q 0,-0.0886 -0.059061,-0.12797 -0.049217,-0.0394 -0.1378085,-0.0197 l -0.96466006,0.18703 q -0.28546062,0.0591 -0.4527996,0.12797 -0.15749552,0.0689 -0.26577368,0.16733 -0.16733898,0.16734 -0.16733898,0.39374 0,0.27562 0.20671286,0.42327 0.20671286,0.13781 0.53154736,0.13781 z m 4.0333685,2.99242 q -0.078748,0 -0.1279651,-0.0492 -0.049217,-0.0492 -0.049217,-0.12797 v -0.87607 q 0,-0.17718 0.1771824,-0.17718 h 0.4626431 q 0.2362433,0 0.3740519,-0.0591 0.147652,-0.0591 0.2460867,-0.24609 l 0.098435,-0.23624 q 0.039374,-0.0689 0.039374,-0.14765 0,-0.0295 -0.019687,-0.10828 l -1.8899461,-5.2761 -0.019687,-0.0788 q 0,-0.12796 0.1574955,-0.12796 h 1.2304337 q 0.167339,0 0.2067129,0.14765 L 6.7257317,132.5 q 0.02953,0.12797 0.1082782,0.12797 0.078748,0 0.1082781,-0.12797 l 0.8957558,-3.42553 q 0.049217,-0.15749 0.1968694,-0.15749 h 1.2402771 q 0.088591,0 0.1279651,0.0591 0.039374,0.0492 0.00984,0.14765 l -1.9982243,5.84702 q -0.2657737,0.79732 -0.669356,1.12216 -0.3937387,0.33468 -1.1221555,0.33468 z"
         id="path13" />
      <path
         style="fill:#f5f5f5;fill-opacity:1"
         d="m 12.78438,134.4688 q -0.177183,0 -0.177183,-0.17719 v -7.1562 q 0,-0.17718 0.177183,-0.17718 h 3.218814 q 1.102469,0 1.732451,0.55123 0.639826,0.54139 0.639826,1.69308 0,0.65951 -0.265774,1.16153 -0.25593,0.49217 -0.718573,0.77763 -0.09844,0.0591 -0.09844,0.14766 0,0.0295 0.01969,0.0886 l 1.181216,2.88413 0.01969,0.0788 q 0,0.12797 -0.157495,0.12797 H 17.03676 q -0.147652,0 -0.206713,-0.13781 l -1.033565,-2.66758 q -0.04922,-0.14766 -0.196869,-0.14766 h -1.230434 q -0.07875,0 -0.127965,0.0492 -0.04922,0.0492 -0.04922,0.12797 v 2.59867 q 0,0.17719 -0.177183,0.17719 z m 2.992415,-4.33113 q 0.502016,0 0.757947,-0.2264 0.265773,-0.2264 0.265773,-0.65951 0,-0.42327 -0.265773,-0.63983 -0.255931,-0.2264 -0.757947,-0.2264 h -1.407617 q -0.177182,0 -0.177182,0.17718 v 1.39778 q 0,0.17718 0.177182,0.17718 z m 6.031584,4.44925 q -0.846539,0 -1.506051,-0.36421 -0.649669,-0.37405 -1.004034,-1.02372 -0.354365,-0.64967 -0.354365,-1.46668 0,-0.7481 0.305148,-1.41746 0.314991,-0.6792 0.944973,-1.09262 0.639825,-0.42327 1.565111,-0.42327 0.757948,0 1.397773,0.31499 0.649669,0.30515 1.043408,0.96466 0.393739,0.64967 0.393739,1.63401 v 0.11813 q 0,0.17718 -0.177183,0.17718 h -3.730675 q -0.08859,0 -0.127965,0.0492 -0.03937,0.0492 -0.01969,0.1378 0.05906,0.27562 0.206713,0.49218 0.374052,0.61029 1.131999,0.61029 0.364208,0 0.629982,-0.15749 0.275617,-0.16734 0.423269,-0.44296 0.04922,-0.0591 0.08859,-0.0886 0.04922,-0.0295 0.118122,-0.0295 h 1.151686 q 0.09843,0 0.137809,0.0394 0.04922,0.0394 0.02953,0.10828 -0.285461,0.8367 -0.954816,1.34856 -0.659513,0.51186 -1.693077,0.51186 z m 1.063094,-3.67162 q 0.08859,0 0.137809,-0.0492 0.04922,-0.0591 0.0098,-0.14766 -0.0689,-0.16734 -0.177182,-0.30514 -0.354365,-0.4528 -1.023721,-0.4528 -0.669356,0 -1.033564,0.4528 -0.127965,0.1378 -0.177183,0.31499 -0.01969,0.0394 -0.01969,0.0689 0,0.0492 0.04922,0.0886 0.04922,0.0295 0.118121,0.0295 z m 4.131788,3.67162 q -0.797321,0 -1.309181,-0.43312 -0.51186,-0.44295 -0.51186,-1.23043 0,-0.84654 0.669355,-1.29934 0.433113,-0.2953 1.299338,-0.4528 l 1.378086,-0.25593 q 0.167339,-0.0295 0.157496,-0.20671 -0.05906,-0.33468 -0.236244,-0.53155 -0.216556,-0.23624 -0.649669,-0.23624 -0.295304,0 -0.54139,0.17718 -0.246087,0.16734 -0.354365,0.46265 -0.03937,0.14765 -0.19687,0.14765 h -1.122155 q -0.206713,0 -0.157496,-0.19687 0.187026,-0.85638 0.856382,-1.2895 0.669356,-0.44295 1.525738,-0.44295 0.502017,0 0.944973,0.13781 0.442956,0.1378 0.757947,0.41342 0.314991,0.27562 0.4528,0.63983 0.147652,0.36421 0.177182,0.7481 0.03937,0.37405 0.03937,0.9745 v 2.57899 q 0,0.17719 -0.177182,0.17719 h -1.141843 q -0.177182,0 -0.177182,-0.17719 v -0.18702 q 0,-0.1575 -0.05906,-0.1575 -0.02953,0 -0.08859,0.0689 -0.167339,0.18702 -0.295304,0.26577 -0.4528,0.30515 -1.240278,0.30515 z m 0.403583,-1.15169 q 0.344521,0 0.649669,-0.14765 0.334678,-0.1575 0.48233,-0.42327 0.147652,-0.26577 0.177182,-0.69889 v -0.0197 q 0,-0.0886 -0.05906,-0.12797 -0.04922,-0.0394 -0.137808,-0.0197 l -0.96466,0.18703 q -0.285461,0.0591 -0.4528,0.12797 -0.157495,0.0689 -0.265774,0.16733 -0.167339,0.16734 -0.167339,0.39374 0,0.27562 0.206713,0.42327 0.206713,0.13781 0.531548,0.13781 z m 5.972534,1.15169 q -0.70873,0 -1.259965,-0.36421 -0.551234,-0.37405 -0.866225,-1.02372 -0.305147,-0.65951 -0.305147,-1.50605 0,-0.84654 0.305147,-1.49621 0.314991,-0.65951 0.866225,-1.02372 0.551235,-0.37405 1.259965,-0.37405 0.413425,0 0.718573,0.11812 0.314991,0.11812 0.580765,0.39374 0.07875,0.0787 0.118121,0.0787 0.07875,0 0.07875,-0.13781 v -2.11635 q 0,-0.17718 0.177182,-0.17718 h 1.141843 q 0.177182,0 0.177182,0.17718 v 7.1562 q 0,0.17719 -0.177182,0.17719 h -1.141843 q -0.177182,0 -0.177182,-0.17719 v -0.19687 q 0,-0.10827 -0.0689,-0.10827 -0.04922,0 -0.127965,0.0787 -0.265774,0.28546 -0.580765,0.40359 -0.305148,0.11812 -0.718573,0.11812 z m 0.383895,-1.27965 q 0.590608,0 0.954816,-0.44296 0.374052,-0.4528 0.374052,-1.17137 0,-0.71858 -0.374052,-1.16153 -0.364208,-0.4528 -0.954816,-0.4528 -0.590608,0 -0.954817,0.4528 -0.354365,0.44295 -0.354365,1.16153 0,0.71857 0.354365,1.17137 0.364209,0.44296 0.954817,0.44296 z m 3.92508,3.12038 q -0.07875,0 -0.127966,-0.0492 -0.04922,-0.0492 -0.04922,-0.12797 v -0.87607 q 0,-0.17718 0.177183,-0.17718 h 0.462643 q 0.236243,0 0.374051,-0.0591 0.147652,-0.0591 0.246087,-0.24609 l 0.09843,-0.23624 q 0.03937,-0.0689 0.03937,-0.14765 0,-0.0295 -0.01969,-0.10828 l -1.889946,-5.2761 -0.01969,-0.0788 q 0,-0.12796 0.157495,-0.12796 h 1.230434 q 0.167339,0 0.206713,0.14765 l 1.004034,3.43537 q 0.02953,0.12797 0.108278,0.12797 0.07875,0 0.108278,-0.12797 l 0.895756,-3.42553 q 0.04922,-0.15749 0.196869,-0.15749 h 1.240277 q 0.08859,0 0.127965,0.0591 0.03937,0.0492 0.0098,0.14765 l -1.998224,5.84702 q -0.265774,0.79732 -0.669356,1.12216 -0.393739,0.33468 -1.122156,0.33468 z"
         id="path14" />
    </g>
    <path
       style="font-weight:800;font-size:6.00301px;font-family:'Open Sauce Two';-inkscape-font-specification:'Open Sauce Two, Ultra-Bold';text-align:center;letter-spacing:0.166688px;word-spacing:0px;text-anchor:middle;white-space:pre;inline-size:70.4408;fill:#f5f5f5;fill-opacity:1;stroke-width:0.200776"
       d="m -86.706662,-35.108454 q -0.751701,0 -1.455217,-0.231292 -0.693879,-0.24093 -1.20465,-0.780614 -0.510773,-0.539683 -0.626419,-1.397394 v -0.03855 q 0,-0.144565 0.163832,-0.144565 h 1.272112 q 0.154199,0 0.192744,0.144565 0.356576,1.127553 1.657598,1.127553 0.539684,0 0.886623,-0.231293 0.356577,-0.231292 0.356577,-0.684241 0,-0.318028 -0.221656,-0.510771 -0.221656,-0.192746 -0.558957,-0.298755 -0.327665,-0.106004 -0.915535,-0.231292 -0.8288,-0.183107 -1.358845,-0.375851 -0.530047,-0.202381 -0.905897,-0.626419 -0.375852,-0.433673 -0.375852,-1.166101 0,-0.713153 0.34694,-1.20465 0.346939,-0.501135 0.954083,-0.751702 0.607143,-0.250567 1.368483,-0.250567 0.72279,0 1.349208,0.250567 0.636056,0.240929 1.069729,0.742065 0.443312,0.491496 0.58787,1.20465 l 0.0096,0.04819 q 0,0.06746 -0.04818,0.106004 -0.03855,0.02891 -0.115653,0.02891 h -1.252801 q -0.154198,0 -0.192745,-0.134917 -0.163833,-0.45295 -0.54932,-0.684242 -0.375852,-0.24093 -0.89626,-0.24093 -0.472224,0 -0.780614,0.192744 -0.298753,0.192744 -0.298753,0.558959 0,0.289115 0.202381,0.462585 0.212018,0.173469 0.52041,0.27948 0.318027,0.09637 0.896258,0.231292 0.848074,0.183107 1.397396,0.395125 0.549319,0.202381 0.944446,0.664967 0.395124,0.452948 0.395124,1.233562 0,0.703516 -0.337301,1.223925 -0.337302,0.520409 -0.973358,0.809525 -0.626419,0.279478 -1.503404,0.279478 z m 6.589611,-0.03855 q -0.828799,0 -1.474492,-0.356576 -0.636055,-0.356576 -0.992632,-1.00227 -0.356576,-0.65533 -0.356576,-1.503404 0,-0.819161 0.356576,-1.455217 0.356577,-0.636056 0.992632,-0.992632 0.645693,-0.356576 1.474492,-0.356576 0.8288,0 1.464855,0.356576 0.645693,0.356576 0.992632,0.992632 0.356577,0.636056 0.356577,1.455217 0,0.848074 -0.356577,1.503404 -0.346939,0.645694 -0.982995,1.00227 -0.636055,0.356576 -1.474492,0.356576 z m 0,-1.262474 q 0.587869,0 0.944447,-0.433673 0.356575,-0.443312 0.356575,-1.166103 0,-0.68424 -0.356575,-1.117915 -0.356578,-0.433674 -0.944447,-0.433674 -0.58787,0 -0.954083,0.433674 -0.366214,0.424037 -0.366214,1.117915 0,0.722791 0.366214,1.166103 0.366213,0.433673 0.954083,0.433673 z m 5.221123,1.146827 q -0.607143,0 -0.934809,-0.279478 -0.327664,-0.289116 -0.327664,-0.857711 v -6.04253 q 0,-0.17347 0.173469,-0.17347 h 1.117916 q 0.173469,0 0.173469,0.17347 v 5.570304 q 0,0.414399 0.375852,0.414399 h 0.202381 q 0.173469,0 0.173469,0.17347 v 0.848074 q 0,0.173469 -0.173469,0.173469 z m 3.920103,0.115653 q -1.281748,0 -1.72506,-0.925172 -0.125285,-0.269841 -0.17347,-0.587868 -0.03854,-0.318027 -0.03854,-0.954083 v -2.910436 q 0,-0.173469 0.173469,-0.173469 h 1.108278 q 0.17347,0 0.17347,0.173469 v 2.92971 q 0,0.404762 0.05783,0.65533 0.05783,0.24093 0.192746,0.385488 0.202381,0.221655 0.636054,0.221655 0.52041,0 0.770977,-0.30839 0.144549,-0.163832 0.202381,-0.433675 0.05783,-0.269841 0.05783,-0.713152 v -2.736966 q 0,-0.173469 0.173469,-0.173469 h 1.117917 q 0.17347,0 0.17347,0.173469 v 5.088443 q 0,0.17347 -0.17347,0.17347 h -1.117917 q -0.173469,0 -0.173469,-0.17347 v -0.14456 q 0,-0.154199 -0.07709,-0.154199 -0.04818,0 -0.106004,0.07709 -0.250567,0.260204 -0.54932,0.385488 -0.298755,0.125285 -0.703516,0.125285 z m 5.972822,-0.115653 q -0.607143,0 -0.934809,-0.279478 -0.327665,-0.289116 -0.327665,-0.857711 v -2.968262 q 0,-0.17347 -0.173469,-0.17347 h -0.424038 q -0.07709,0 -0.125285,-0.04819 -0.04818,-0.04818 -0.04818,-0.125285 v -0.809525 q 0,-0.17347 0.173469,-0.17347 h 0.424038 q 0.17347,0 0.17347,-0.173469 v -1.570855 q 0,-0.17347 0.173469,-0.17347 h 1.117916 q 0.173469,0 0.173469,0.17347 v 1.570865 q 0,0.173469 0.173471,0.173469 h 0.645691 q 0.17347,0 0.17347,0.173469 v 0.809526 q 0,0.173469 -0.17347,0.173469 h -0.645698 q -0.173471,0 -0.173471,0.17347 v 2.496036 q 0,0.192744 0.07709,0.30839 0.07709,0.106004 0.30839,0.106004 h 0.424036 q 0.173469,0 0.173469,0.17347 v 0.848074 q 0,0.173469 -0.173469,0.173469 z m 2.522713,0 q -0.17347,0 -0.17347,-0.173469 v -5.088443 q 0,-0.17347 0.17347,-0.17347 h 1.117915 q 0.17347,0 0.17347,0.17347 v 5.088443 q 0,0.173469 -0.17347,0.173469 z m 0.558958,-5.917243 q -0.366214,0 -0.616781,-0.212018 -0.24093,-0.221655 -0.24093,-0.578233 0,-0.346939 0.250567,-0.568594 0.250567,-0.221655 0.607144,-0.221655 0.356576,0 0.607143,0.221655 0.250567,0.221655 0.250567,0.568594 0,0.356578 -0.250567,0.578233 -0.240929,0.212018 -0.607143,0.212018 z m 4.719983,6.03289 q -0.8288,0 -1.474491,-0.356576 -0.636056,-0.356576 -0.992632,-1.00227 -0.356578,-0.65533 -0.356578,-1.503404 0,-0.819161 0.356578,-1.455217 0.356576,-0.636056 0.992632,-0.992632 0.645691,-0.356576 1.474491,-0.356576 0.8288,0 1.464856,0.356576 0.645691,0.356576 0.992632,0.992632 0.356576,0.636056 0.356576,1.455217 0,0.848074 -0.356576,1.503404 -0.346941,0.645694 -0.982995,1.00227 -0.636056,0.356576 -1.474493,0.356576 z m 0,-1.262474 q 0.58787,0 0.944446,-0.433673 0.356578,-0.443312 0.356578,-1.166103 0,-0.68424 -0.356578,-1.117915 -0.356576,-0.433674 -0.944446,-0.433674 -0.587868,0 -0.954083,0.433674 -0.366213,0.424037 -0.366213,1.117915 0,0.722791 0.366213,1.166103 0.366215,0.433673 0.954083,0.433673 z m 4.161034,1.146827 q -0.173471,0 -0.173471,-0.173469 v -5.088443 q 0,-0.17347 0.173471,-0.17347 h 1.117915 q 0.173469,0 0.173469,0.17347 v 0.154198 q 0,0.134917 0.07709,0.134917 0.03854,0 0.115652,-0.07709 0.260204,-0.269841 0.558959,-0.385487 0.298753,-0.115653 0.674603,-0.115653 1.320298,0 1.72506,0.925172 0.154198,0.318027 0.183106,0.645691 0.03855,0.327666 0.03855,0.89626 v 2.910436 q 0,0.173469 -0.17347,0.173469 h -1.108278 q -0.173469,0 -0.173469,-0.173469 v -2.92971 q 0,-0.404762 -0.05783,-0.645693 -0.05783,-0.250567 -0.192744,-0.395125 -0.21202,-0.221655 -0.636056,-0.221655 -0.539684,0 -0.780614,0.30839 -0.134917,0.163832 -0.192744,0.433675 -0.05783,0.269841 -0.05783,0.713152 v 2.736966 q 0,0.173469 -0.17347,0.173469 z m 8.411038,0.115653 q -0.954083,0 -1.696148,-0.433673 -0.732426,-0.443313 -0.925172,-1.349208 v -0.03855 q 0,-0.144566 0.163832,-0.144566 h 1.089006 q 0.134917,0 0.192744,0.134918 0.154198,0.346938 0.452947,0.530045 0.308392,0.173469 0.703517,0.173469 0.37585,0 0.616781,-0.144565 0.250567,-0.154199 0.250567,-0.4144 0,-0.289117 -0.289115,-0.4144 -0.289118,-0.125285 -0.915535,-0.260204 -0.636056,-0.125285 -1.060092,-0.269842 -0.414401,-0.144565 -0.713154,-0.481861 -0.298752,-0.337301 -0.298752,-0.915534 0,-0.819163 0.607142,-1.223925 0.616782,-0.414399 1.532316,-0.414399 0.934809,0 1.570864,0.443311 0.636056,0.443312 0.838437,1.252836 v 0.03855 q 0,0.144565 -0.163833,0.144565 h -1.03118 q -0.144566,0 -0.202381,-0.134917 -0.134918,-0.318027 -0.404764,-0.472222 -0.260204,-0.154198 -0.607143,-0.154198 -0.34694,0 -0.549321,0.134917 -0.202381,0.125285 -0.202381,0.346939 0,0.269843 0.289116,0.395126 0.289117,0.125285 0.905897,0.231293 0.655331,0.115652 1.079367,0.260204 0.433675,0.144566 0.742065,0.481861 0.30839,0.327664 0.30839,0.915534 0,0.530046 -0.279479,0.934809 -0.269841,0.404762 -0.790251,0.626417 -0.510771,0.221656 -1.214287,0.221656 z"
       id="text10"
       aria-label="Solutions" />
  </g>
</svg>
