<?xml version="1.0" encoding="UTF-8" standalone="no"?>
<!-- Created with Inkscape (http://www.inkscape.org/) -->

<svg
   width="3.9169245in"
   height="3.8704791in"
   viewBox="0 0 99.489882 98.310169"
   version="1.1"
   id="svg1"
   xmlns="http://www.w3.org/2000/svg"
   xmlns:svg="http://www.w3.org/2000/svg">
  <defs
     id="defs1" />
  <g
     id="layer1"
     transform="translate(-1.0550582,-1.6449172)">
    <rect
       style="fill:#1d3557;fill-opacity:1;stroke:none;stroke-width:0.264583"
       id="rect80"
       width="99.489883"
       height="98.310165"
       x="1.0550582"
       y="1.6449172"
       ry="5.1121287" />
    <path
       id="text3-4"
       style="font-weight:800;font-size:57.5301px;font-family:'Open Sauce Two';-inkscape-font-specification:'Open Sauce Two, Ultra-Bold';text-align:center;letter-spacing:-0.647214px;text-anchor:middle;display:none;fill:#ffc0ff;fill-opacity:1;stroke-width:1.19854"
       d="m 37.681332,22.426066 v 8.341609 h -4.225065 c -1.956024,0 -3.432515,0.441306 -4.429704,1.323434 -1.035541,0.843775 -1.553394,2.09011 -1.553394,3.739306 0,1.68755 0.517853,2.972418 1.553394,3.854546 0.997189,0.882128 2.47368,1.323433 4.429704,1.323433 h 4.225065 v 8.053772 h -3.18947 c -0.5753,0 -0.959066,0.287696 -1.150834,0.862996 l -6.040458,15.59078 c -0.23012,0.536947 -0.632893,0.805636 -1.208195,0.805636 h -7.709089 c -0.613655,0 -0.920357,-0.249681 -0.920357,-0.748275 l 0.114721,-0.45992 6.903971,-16.856336 c 0.07671,-0.23012 0.114721,-0.402738 0.114721,-0.517798 0,-0.34518 -0.191624,-0.632875 -0.575158,-0.862996 -1.802609,-1.112249 -3.202554,-2.627272 -4.199743,-4.544942 -1.035542,-1.956024 -1.553393,-4.219055 -1.553393,-6.788733 0,-4.487348 1.246852,-7.785566 3.739823,-9.895003 2.454617,-2.14779 5.829382,-3.221509 10.124962,-3.221509 z" />
    <rect
       style="fill:#f5f5f5;fill-opacity:1;stroke:none;stroke-width:0.470511"
       id="rect70"
       width="3.5932093"
       height="89.830238"
       x="48.435352"
       y="5.884881" />
    <path
       id="path71"
       style="font-weight:800;font-size:57.5301px;font-family:'Open Sauce Two';-inkscape-font-specification:'Open Sauce Two, Ultra-Bold';text-align:center;letter-spacing:-0.647214px;text-anchor:middle;fill:#ffc300;fill-opacity:1;stroke-width:2.0693"
       d="m 56.389324,13.400913 v 14.401931 h 7.294642 c 3.377097,0 5.9263,0.761923 7.647956,2.284932 1.787881,1.456792 2.681965,3.60861 2.681965,6.455975 0,2.913584 -0.894084,5.13193 -2.681965,6.654941 -1.721656,1.523008 -4.270859,2.284929 -7.647956,2.284929 h -7.294642 v 13.904974 h 5.506662 c 0.993267,0 1.65585,0.496714 1.986931,1.489978 l 10.428956,26.91775 c 0.397307,0.927047 1.0927,1.390944 2.08598,1.390944 h 13.309884 c 1.059481,0 1.589005,-0.43108 1.589005,-1.291911 L 91.098683,87.101297 79.178841,57.998544 c -0.13249,-0.397305 -0.198072,-0.695334 -0.198072,-0.893986 0,-0.595959 0.330858,-1.092671 0.99302,-1.489978 3.112255,-1.920318 5.529278,-4.536031 7.250934,-7.84692 1.787881,-3.377109 2.681965,-7.28427 2.681965,-11.720865 0,-7.747481 -2.152714,-13.441912 -6.456877,-17.08389 C 79.211873,15.254708 73.38529,13.400913 65.968896,13.400913 Z" />
    <path
       id="path72"
       style="font-weight:800;font-size:55.2004px;font-family:'Open Sauce Two';-inkscape-font-specification:'Open Sauce Two, Ultra-Bold';text-align:center;letter-spacing:-0.621005px;text-anchor:middle;fill:#f5f5f5;fill-opacity:1;stroke:none;stroke-width:1.99097"
       d="m 38.68652,13.400913 c -5.033158,0 -11.988706,0.33355 -16.002513,1.990033 -4.013769,1.656486 -7.471832,4.863616 -9.01283,7.378367 -2.293575,3.249254 -3.189863,8.052443 -3.189863,12.767051 0,5.754276 0.763749,9.608482 3.043204,13.068432 1.064188,1.686288 1.979922,3.018456 3.295043,4.369321 1.470536,1.510521 3.440363,2.767689 5.290161,3.473978 7.075218,2.414994 11.178994,2.646728 12.973935,2.78808 2.258983,0.187488 7.107446,0.278265 8.9579,0.21611 0,0 -0.147773,-14.029396 -0.146349,-13.896399 -2.45314,-0.004 -4.334929,0.02575 -6.205089,-0.02371 -3.657199,-0.09674 -11.581094,-0.115471 -11.374576,-9.25383 0.171257,-7.577688 6.778508,-8.291149 11.304461,-8.376725 2.094204,-0.04253 4.036993,-0.0061 6.45461,0.02 l -0.01994,-14.439788 c -1.825187,-0.03873 -3.531174,-0.08093 -5.368091,-0.08093 z M 11.927921,63.573519 c -1.083076,0 -1.624663,0.477609 -1.624663,1.433271 v 0.381911 c 0.764529,5.670271 2.835348,10.289546 6.212037,13.857359 3.376676,3.567808 7.357946,6.147797 11.945121,7.740566 4.6509,1.529063 9.461216,2.29413 14.430687,2.29413 0.394818,0 0.77637,-0.01564 1.163533,-0.02403 V 76.156067 c -0.380797,0.01889 -0.767006,0.03204 -1.163533,0.03204 -8.600982,0 -14.079962,-3.727143 -16.437262,-11.18132 -0.254847,-0.955663 -0.891953,-1.433272 -1.911329,-1.433272 z" />
  </g>
</svg>
